<?xml version="1.0" encoding="UTF-8" standalone="no"?>
<svg
   version="1.1"
   width="460.79999pt"
   height="240.00011pt"
   id="svg4"
   viewBox="0 0 460.79999 240.00011"
   sodipodi:docname="Лого Aitil.cdr"
   xmlns:inkscape="http://www.inkscape.org/namespaces/inkscape"
   xmlns:sodipodi="http://sodipodi.sourceforge.net/DTD/sodipodi-0.dtd"
   xmlns="http://www.w3.org/2000/svg"
   xmlns:svg="http://www.w3.org/2000/svg">
  <defs
     id="defs4" />
  <sodipodi:namedview
     id="namedview4"
     pagecolor="#ffffff"
     bordercolor="#000000"
     borderopacity="0.25"
     inkscape:showpageshadow="2"
     inkscape:pageopacity="0.0"
     inkscape:pagecheckerboard="0"
     inkscape:deskcolor="#d1d1d1"
     inkscape:document-units="pt" />
  <g
     id="Layer1000" />
  <g
     id="Layer1001">
    <path
       d="m 235.604,126.4704 c 7.4505,-6.3946 10.5651,-14.3963 8.5555,-23.8176 -1.8495,2.3127 -0.4621,5.0876 -3.5313,11.7308 l -0.904,0.9455 c -0.5282,0.5085 -1.3263,1.2202 -1.9867,1.7135 -2.1723,1.6234 -4.7707,2.3892 -7.3412,2.352 -4.9483,-0.0721 -9.7977,-3.1211 -11.3276,-8.762 -0.862,-3.1785 0.5074,-11.4368 -7.113,-11.6346 -8.0202,-0.2081 -8.7685,11.6062 -1.0618,12.9024 0.2441,0.0415 6.6737,-0.9133 6.6737,3.9328 0,9.1449 -20.8111,4.6249 -20.8111,-10.6366 0,-18.3483 29.0001,-19.9274 30.0489,-0.4512 0.2977,5.5251 0.9526,6.0008 4.1737,6.0008 7.5723,0 5.8222,-15.2877 2.3127,-20.8111 -0.8111,-1.2744 -1.3448,-1.9484 -2.3127,-3.2375 -5.2066,-6.9343 -16.0213,-8.5058 -24.2797,-7.1681 -15.3549,2.4875 -24.4731,17.1192 -21.967,32.1415 2.0702,12.408 15.403,22.1227 33.2979,21.2738 5.4065,-0.2561 13.2978,-2.8043 17.5737,-6.4744 z"
       style="fill:#004aad;fill-rule:evenodd"
       id="path1" />
    <text
       x="250.1725"
       y="121.7779"
       id="text1"><tspan
         font-family="'Bauhaus 93'"
         font-size="48.5px"
         fill="#004aad"
         id="tspan1">til</tspan></text>
    <path
       d="m 266.9563,91.2538 c 0,6.9576 9.3754,6.3204 9.3754,0.3904 0,-6.4123 -9.3754,-5.8341 -9.3754,-0.3904 z"
       style="fill:#e30016;fill-rule:evenodd"
       id="path2" />
    <path
       d="m 236.9914,91.2538 c 0,6.9576 9.3754,6.3204 9.3754,0.3904 0,-6.4123 -9.3754,-5.8341 -9.3754,-0.3904 z"
       style="fill:#e30016;fill-rule:evenodd"
       id="path3" />
  </g>
  <path
     d="M 114.2019,35.5878 V 177.4645 H 353.6736 V 35.5878 Z"
     style="fill:none;stroke:#102a83;stroke-width:0.5669;stroke-linecap:butt;stroke-linejoin:miter;stroke-dasharray:none"
     id="path4" />
</svg>
