<?xml version="1.0" encoding="UTF-8" standalone="no"?>
<svg
   xmlns:dc="http://purl.org/dc/elements/1.1/"
   xmlns:cc="http://creativecommons.org/ns#"
   xmlns:rdf="http://www.w3.org/1999/02/22-rdf-syntax-ns#"
   xmlns:svg="http://www.w3.org/2000/svg"
   xmlns="http://www.w3.org/2000/svg"
   viewBox="0 0 460.79999 240.00011"
   id="svg2"
   height="240.00011"
   width="460.79999"
   version="1.1">
  <metadata
     id="metadata20">
    <rdf:RDF>
      <cc:Work
         rdf:about="">
        <dc:format>image/svg+xml</dc:format>
        <dc:type
           rdf:resource="http://purl.org/dc/dcmitype/StillImage" />
      </cc:Work>
    </rdf:RDF>
  </metadata>
  <defs
     id="defs18" />
  <g
     id="g4" />
  <g
     id="g6">
    <path
       id="path8"
       style="fill:#004aad;fill-rule:evenodd"
       d="m 235.604,126.4704 c 7.4505,-6.3946 10.5651,-14.3963 8.5555,-23.8176 -1.8495,2.3127 -0.4621,5.0876 -3.5313,11.7308 l -0.904,0.9455 c -0.5282,0.5085 -1.3263,1.2202 -1.9867,1.7135 -2.1723,1.6234 -4.7707,2.3892 -7.3412,2.352 -4.9483,-0.0721 -9.7977,-3.1211 -11.3276,-8.762 -0.862,-3.1785 0.5074,-11.4368 -7.113,-11.6346 -8.0202,-0.2081 -8.7685,11.6062 -1.0618,12.9024 0.2441,0.0415 6.6737,-0.9133 6.6737,3.9328 0,9.1449 -20.8111,4.6249 -20.8111,-10.6366 0,-18.3483 29.0001,-19.9274 30.0489,-0.4512 0.2977,5.5251 0.9526,6.0008 4.1737,6.0008 7.5723,0 5.8222,-15.2877 2.3127,-20.8111 -0.8111,-1.2744 -1.3448,-1.9484 -2.3127,-3.2375 -5.2066,-6.9343 -16.0213,-8.5058 -24.2797,-7.1681 -15.3549,2.4875 -24.4731,17.1192 -21.967,32.1415 2.0702,12.408 15.403,22.1227 33.2979,21.2738 5.4065,-0.2561 13.2978,-2.8043 17.5737,-6.4744 z" />
    <path
       id="path10"
       style="fill:#ed1c24;fill-rule:evenodd"
       d="m 266.9563,91.2538 c 0,6.9576 9.3754,6.3204 9.3754,0.3904 0,-6.4123 -9.3754,-5.8341 -9.3754,-0.3904 z" />
    <path
       id="path12"
       style="fill:#ed1c24;fill-rule:evenodd"
       d="m 236.9914,91.2538 c 0,6.9576 9.3754,6.3204 9.3754,0.3904 0,-6.4123 -9.3754,-5.8341 -9.3754,-0.3904 z" />
  </g>
  <path
     id="path14"
     style="fill:none;stroke:#2e3092;stroke-width:0.56690001;stroke-linecap:butt;stroke-linejoin:miter;stroke-dasharray:none"
     d="m 114.2019,35.5878 0,141.8767 239.4717,0 0,-141.8767 -239.4717,0 z" />
</svg>
